<?xml version="1.0" encoding="utf-8"?>
<!-- Generator: Adobe Illustrator 24.3.0, SVG Export Plug-In . SVG Version: 6.00 Build 0)  -->
<svg version="1.1" id="レイヤー_1" xmlns="http://www.w3.org/2000/svg" xmlns:xlink="http://www.w3.org/1999/xlink" x="0px"
	 y="0px" viewBox="0 0 13.8 27.9" style="enable-background:new 0 0 13.8 27.9;" xml:space="preserve">
<style type="text/css">
	.st0{fill:#231F20;}
</style>
<path class="st0" d="M12,22.7c0,0.5,0.3,0.9,0.8,0.9c0.5,0,0.9-0.3,0.9-0.8c0,0,0-0.1,0-0.1V6.8c0-3.8-3.2-6.9-7-6.8
	C3.1,0,0,3.1,0,6.8l0,15.9c0,2.9,2.4,5.2,5.3,5.2c2.9,0,5.2-2.3,5.2-5.2V8.3c0-1.9-1.5-3.4-3.4-3.4S3.8,6.4,3.8,8.3l0,0v13.8
	c0,0.5,0.4,0.9,0.9,0.9c0.5,0,0.9-0.4,0.9-0.9l0-13.8c0-0.9,0.8-1.6,1.7-1.6c0.9,0,1.6,0.7,1.6,1.6v14.4c0,1.9-1.6,3.5-3.5,3.5
	c-1.9,0-3.5-1.6-3.5-3.5l0-15.9c0-2.8,2.3-5.1,5.1-5.1C9.7,1.7,12,4,12,6.8L12,22.7z"/>
</svg>
