<?xml version="1.0" encoding="utf-8"?>
<!-- Generator: Adobe Illustrator 26.0.2, SVG Export Plug-In . SVG Version: 6.00 Build 0)  -->
<svg version="1.2" baseProfile="tiny" id="レイヤー_1"
	 xmlns="http://www.w3.org/2000/svg" xmlns:xlink="http://www.w3.org/1999/xlink" x="0px" y="0px" viewBox="0 0 965.3 299"
	 overflow="visible" xml:space="preserve">
<g>
	<g>
		<g>
			<path fill="#666767" d="M1,234.7v-1.4l3.8-1v11.4H3.4V234L1,234.7z"/>
			<path fill="#666767" d="M8.7,242.2c-0.8-1.1-1.2-2.5-1.2-4.1s0.4-3.1,1.2-4.1c0.8-1.1,1.8-1.6,3-1.6s2.2,0.5,3,1.6
				s1.2,2.5,1.2,4.1s-0.4,3.1-1.2,4.1s-1.8,1.6-3,1.6S9.5,243.3,8.7,242.2z M9.6,234.8c-0.5,0.8-0.8,1.9-0.8,3.2s0.3,2.4,0.8,3.2
				s1.2,1.2,2,1.2s1.5-0.4,2-1.2s0.8-1.9,0.8-3.2s-0.3-2.4-0.8-3.2s-1.2-1.2-2-1.2S10.1,234,9.6,234.8z"/>
		</g>
		<g>
			<path fill="#666767" d="M0,139l5.3-5.6c0.8-0.8,1.2-1.6,1.2-2.4c0-0.5-0.2-1-0.5-1.4S5.1,129,4.5,129c-0.7,0-1.3,0.2-1.8,0.7
				c-0.4,0.5-0.7,1.2-0.7,2H0.6c0-1.2,0.3-2.2,1-2.9s1.6-1.1,2.8-1.1c0.6,0,1.1,0.1,1.6,0.3s0.8,0.5,1.1,0.8
				c0.3,0.3,0.5,0.7,0.6,1.1c0.1,0.4,0.2,0.8,0.2,1.2c0,1-0.5,2.1-1.5,3.1l-3.6,3.6h5.1v1.3H0V139z"/>
			<path fill="#666767" d="M10.6,137.5c-0.8-1.1-1.2-2.5-1.2-4.1s0.4-3.1,1.2-4.1c0.8-1.1,1.8-1.6,3-1.6s2.2,0.5,3,1.6
				c0.8,1.1,1.2,2.5,1.2,4.1s-0.4,3.1-1.2,4.1s-1.8,1.6-3,1.6S11.4,138.6,10.6,137.5z M11.5,130.1c-0.5,0.8-0.8,1.9-0.8,3.2
				s0.3,2.4,0.8,3.2s1.2,1.2,2,1.2s1.5-0.4,2-1.2s0.8-1.9,0.8-3.2s-0.3-2.4-0.8-3.2s-1.2-1.2-2-1.2S12.1,129.3,11.5,130.1z"/>
		</g>
		<g>
			<path fill="#666767" d="M4.2,34.5c-1.1,0-1.9-0.3-2.6-0.9c-0.7-0.6-1-1.3-1-2.2H2c0,0.5,0.2,1,0.6,1.3c0.4,0.3,1,0.5,1.6,0.5
				s1.1-0.2,1.5-0.5c0.4-0.4,0.6-0.8,0.6-1.5S6.1,30,5.6,29.7c-0.5-0.4-1.1-0.5-1.9-0.5V28c0.7,0,1.2-0.2,1.6-0.6
				C5.8,27,6,26.5,6,26s-0.1-1-0.4-1.3s-0.7-0.5-1.3-0.5c-0.5,0-1,0.2-1.3,0.5c-0.4,0.3-0.5,0.7-0.5,1.2H1.1c0-0.9,0.3-1.6,0.9-2.1
				S3.3,23,4.3,23c0.9,0,1.7,0.3,2.2,0.9c0.6,0.6,0.9,1.3,0.9,2.1c0,0.6-0.2,1.1-0.5,1.5s-0.8,0.8-1.4,1C7,29,7.7,29.9,7.7,31.4
				c0,0.9-0.3,1.7-1,2.3C6.1,34.2,5.2,34.5,4.2,34.5z"/>
			<path fill="#666767" d="M10.2,32.8C9.4,31.7,9,30.3,9,28.7c0-1.7,0.4-3.1,1.2-4.1c0.8-1.1,1.8-1.6,3-1.6s2.2,0.5,3,1.6
				c0.8,1.1,1.2,2.5,1.2,4.1c0,1.7-0.4,3.1-1.2,4.1c-0.8,1.1-1.8,1.6-3,1.6S11,33.9,10.2,32.8z M11.2,25.5c-0.5,0.8-0.8,1.9-0.8,3.2
				c0,1.3,0.3,2.4,0.8,3.2c0.5,0.8,1.2,1.2,2,1.2s1.5-0.4,2-1.2S16,30,16,28.7c0-1.3-0.3-2.4-0.8-3.2s-1.2-1.2-2-1.2
				S11.7,24.6,11.2,25.5z"/>
		</g>
	</g>
	<g>
		<g>
			<path fill="#666767" d="M80.5,297.4c-0.8-1.1-1.2-2.5-1.2-4.1s0.4-3.1,1.2-4.1c0.8-1.1,1.8-1.6,3-1.6s2.2,0.5,3,1.6
				s1.2,2.5,1.2,4.1s-0.4,3.1-1.2,4.1s-1.8,1.6-3,1.6S81.2,298.5,80.5,297.4z M81.4,290.1c-0.5,0.8-0.8,1.9-0.8,3.2
				c0,1.3,0.3,2.4,0.8,3.2s1.2,1.2,2,1.2s1.5-0.4,2-1.2s0.8-1.9,0.8-3.2c0-1.3-0.3-2.4-0.8-3.2s-1.2-1.2-2-1.2
				S81.9,289.2,81.4,290.1z"/>
		</g>
		<g>
			<path fill="#666767" d="M205.2,289.9v-1.4l3.8-1v11.4h-1.4v-9.7L205.2,289.9z"/>
		</g>
		<g>
			<path fill="#666767" d="M328.7,298.9l5.3-5.6c0.8-0.8,1.2-1.6,1.2-2.4c0-0.5-0.2-1-0.5-1.4s-0.9-0.6-1.5-0.6
				c-0.7,0-1.3,0.2-1.8,0.7c-0.4,0.5-0.7,1.2-0.7,2h-1.4c0-1.2,0.3-2.2,1-2.9c0.7-0.7,1.6-1.1,2.8-1.1c0.6,0,1.1,0.1,1.6,0.3
				c0.5,0.2,0.8,0.5,1.1,0.8c0.3,0.3,0.5,0.7,0.6,1.1s0.2,0.8,0.2,1.2c0,1-0.5,2.1-1.5,3.1l-3.6,3.6h5.1v1.3h-7.9V298.9z"/>
		</g>
		<g>
			<path fill="#666767" d="M459.4,299c-1.1,0-1.9-0.3-2.6-0.9s-1-1.3-1-2.2h1.4c0,0.5,0.2,1,0.6,1.3s0.9,0.5,1.6,0.5
				c0.6,0,1.1-0.2,1.5-0.5c0.4-0.4,0.6-0.8,0.6-1.5s-0.2-1.2-0.7-1.5c-0.5-0.4-1.1-0.5-1.9-0.5v-1.2c0.7,0,1.2-0.2,1.6-0.6
				s0.6-0.8,0.6-1.4c0-0.5-0.1-1-0.4-1.3s-0.7-0.5-1.3-0.5c-0.5,0-1,0.2-1.3,0.5c-0.4,0.3-0.5,0.7-0.5,1.2h-1.3
				c0-0.9,0.3-1.6,0.9-2.1s1.3-0.8,2.3-0.8s1.7,0.3,2.2,0.9c0.6,0.6,0.9,1.3,0.9,2.1c0,0.6-0.2,1.1-0.5,1.5s-0.8,0.8-1.4,1
				c1.5,0.5,2.2,1.4,2.2,2.9c0,0.9-0.3,1.7-1,2.3C461.2,298.8,460.4,299,459.4,299z"/>
		</g>
		<g>
			<path fill="#666767" d="M586.5,296.6v2.2h-1.4v-2.2h-5.4l6.2-9h0.6v7.8h1.8v1.2H586.5z M585.2,295.4v-4.7l-3.2,4.7H585.2z"/>
		</g>
		<g>
			<path fill="#666767" d="M712.5,295.2c0,1.2-0.4,2.2-1.1,2.8c-0.7,0.7-1.7,1-2.8,1c-1.7,0-3.1-0.8-4-2.4l1.2-0.8
				c0.3,0.5,0.7,0.9,1.2,1.3s1.1,0.5,1.7,0.5c0.8,0,1.4-0.2,1.8-0.7c0.4-0.5,0.7-1.1,0.7-1.9s-0.2-1.4-0.7-1.8s-1.1-0.7-1.8-0.7
				c-0.5,0-1,0.1-1.4,0.2s-0.9,0.4-1.4,0.8l1.5-6h5.3v1.2h-4.2l-0.8,3c0.5-0.3,1.1-0.4,1.7-0.4c1,0,1.8,0.4,2.4,1.1
				C712.2,293.2,712.5,294.1,712.5,295.2z"/>
		</g>
		<g>
			<path fill="#666767" d="M833.9,287.7h1.7l-3.2,4.1c0.3-0.2,0.7-0.3,1.3-0.3c0.9,0,1.7,0.3,2.3,1s1,1.6,1,2.6
				c0,1.1-0.4,2.1-1.1,2.8c-0.7,0.7-1.6,1.1-2.7,1.1c-1.1,0-2-0.4-2.7-1.1s-1.1-1.6-1.1-2.8c0-0.9,0.2-1.7,0.7-2.3L833.9,287.7z
				 M831.5,293.3c-0.5,0.5-0.7,1.1-0.7,1.9s0.2,1.4,0.7,1.9s1.1,0.7,1.8,0.7s1.3-0.2,1.8-0.7s0.7-1.1,0.7-1.9s-0.2-1.4-0.7-1.9
				s-1.1-0.7-1.8-0.7C832.5,292.6,831.9,292.8,831.5,293.3z"/>
		</g>
		<g>
			<path fill="#666767" d="M955.2,289v-1.3h7.8l-5.4,11.2h-1.4l4.8-9.9L955.2,289L955.2,289z"/>
		</g>
	</g>
	<g>
		
			<line fill="none" stroke="#D9D9D9" stroke-width="2.3297" stroke-linecap="round" stroke-linejoin="round" stroke-miterlimit="10" x1="89.3" y1="236" x2="959.7" y2="236"/>
		
			<line fill="none" stroke="#D9D9D9" stroke-width="2.3297" stroke-linecap="round" stroke-linejoin="round" stroke-miterlimit="10" x1="89.3" y1="130.8" x2="959.7" y2="130.8"/>
		
			<line fill="none" stroke="#D9D9D9" stroke-width="2.3297" stroke-linecap="round" stroke-linejoin="round" stroke-miterlimit="10" x1="89.3" y1="25.6" x2="959.7" y2="25.6"/>
		<g>
			<path fill="#CCCCCC" d="M146.3,236c0,2-1.6,3.7-3.7,3.7c-2,0-3.7-1.6-3.7-3.7c0-2,1.6-3.7,3.7-3.7
				C144.7,232.4,146.3,234,146.3,236z"/>
			<path fill="#CCCCCC" d="M271.9,236c0,2-1.6,3.7-3.7,3.7c-2,0-3.7-1.6-3.7-3.7c0-2,1.6-3.7,3.7-3.7
				C270.3,232.4,271.9,234,271.9,236z"/>
			<path fill="#CCCCCC" d="M397.6,236c0,2-1.6,3.7-3.7,3.7c-2,0-3.7-1.6-3.7-3.7c0-2,1.6-3.7,3.7-3.7
				C395.9,232.4,397.6,234,397.6,236z"/>
			<path fill="#CCCCCC" d="M523.2,236c0,2-1.6,3.7-3.7,3.7s-3.7-1.6-3.7-3.7c0-2,1.6-3.7,3.7-3.7S523.2,234,523.2,236z"/>
			<path fill="#CCCCCC" d="M648.8,236c0,2-1.6,3.7-3.7,3.7c-2,0-3.7-1.6-3.7-3.7c0-2,1.6-3.7,3.7-3.7
				C647.1,232.4,648.8,234,648.8,236z"/>
			<path fill="#CCCCCC" d="M774.4,236c0,2-1.6,3.7-3.7,3.7c-2,0-3.7-1.6-3.7-3.7c0-2,1.6-3.7,3.7-3.7
				C772.8,232.4,774.4,234,774.4,236z"/>
			<path fill="#CCCCCC" d="M900,236c0,2-1.6,3.7-3.7,3.7c-2,0-3.7-1.6-3.7-3.7c0-2,1.6-3.7,3.7-3.7C898.4,232.4,900,234,900,236z"/>
		</g>
	</g>
	<g>
		
			<linearGradient id="SVGID_1_" gradientUnits="userSpaceOnUse" x1="81.7407" y1="198.7643" x2="964.4594" y2="198.7643" gradientTransform="matrix(1 0 0 -1 0 300)">
			<stop  offset="0" style="stop-color:#42B688"/>
			<stop  offset="1" style="stop-color:#42539A"/>
		</linearGradient>
		
			<path fill="none" stroke="url(#SVGID_1_)" stroke-width="9.3186" stroke-linecap="round" stroke-linejoin="round" stroke-miterlimit="10" d="
			M86.4,146.6l78,36.5c26.7,12.5,58.1,9.2,81.7-8.5l51.4-38.7c26.9-20.3,63.6-21.4,91.7-2.9l0,0c38.6,25.4,90.5,12.7,113.1-27.5
			l29.8-53c28.2-50.2,98.6-54.8,133.1-8.7l18.3,24.4c15,20.1,38.6,31.9,63.7,31.9h54.3c15.8,0,31.3,4.7,44.5,13.6l113.8,76.6"/>
		<image width="28" height="29" xlink:href="D69E1210.png"  transform="matrix(1 0 0 1 195 175)">
		</image>
		<image width="28" height="28" xlink:href="D69E121E.png"  transform="matrix(1 0 0 1 320 106)">
		</image>
		<image width="28" height="28" xlink:href="D69E121F.png"  transform="matrix(1 0 0 1 445 125)">
		</image>
		<image width="28" height="28" xlink:href="D69E121C.png"  transform="matrix(1 0 0 1 570 0)">
		</image>
		<image width="29" height="28" xlink:href="D69E121D.png"  transform="matrix(1 0 0 1 695 74)">
		</image>
		<image width="29" height="28" xlink:href="D69E1226.png"  transform="matrix(1 0 0 1 820 94)">
		</image>
	</g>
</g>
<g>
	<path fill="#14B084" d="M89.3,234.5c0,3.1-2.5,5.6-5.6,5.6s-5.6-2.5-5.6-5.6s2.5-5.6,5.6-5.6S89.3,231.4,89.3,234.5z"/>
	<path fill="#14B084" d="M214.4,234.5c0,3.1-2.5,5.6-5.6,5.6s-5.6-2.5-5.6-5.6s2.5-5.6,5.6-5.6S214.4,231.4,214.4,234.5z"/>
	<path fill="#14B084" d="M339.6,234.5c0,3.1-2.5,5.6-5.6,5.6s-5.6-2.5-5.6-5.6s2.5-5.6,5.6-5.6S339.6,231.4,339.6,234.5z"/>
	<path fill="#14B084" d="M464.7,234.5c0,3.1-2.5,5.6-5.6,5.6s-5.6-2.5-5.6-5.6s2.5-5.6,5.6-5.6S464.7,231.4,464.7,234.5z"/>
	<path fill="#14B084" d="M589.9,234.5c0,3.1-2.5,5.6-5.6,5.6s-5.6-2.5-5.6-5.6s2.5-5.6,5.6-5.6S589.9,231.4,589.9,234.5z"/>
	<path fill="#14B084" d="M840.2,234.5c0,3.1-2.5,5.6-5.6,5.6s-5.6-2.5-5.6-5.6s2.5-5.6,5.6-5.6S840.2,231.4,840.2,234.5z"/>
	<path fill="#14B084" d="M715,234.5c0,3.1-2.5,5.6-5.6,5.6s-5.6-2.5-5.6-5.6s2.5-5.6,5.6-5.6S715,231.4,715,234.5z"/>
	<path fill="#14B084" d="M965.3,234.5c0,3.1-2.5,5.6-5.6,5.6s-5.6-2.5-5.6-5.6s2.5-5.6,5.6-5.6S965.3,231.4,965.3,234.5z"/>
</g>
</svg>
