<?xml version="1.0" encoding="utf-8"?>
<!-- Generator: Adobe Illustrator 26.0.2, SVG Export Plug-In . SVG Version: 6.00 Build 0)  -->
<svg version="1.2" baseProfile="tiny" id="レイヤー_1"
	 xmlns="http://www.w3.org/2000/svg" xmlns:xlink="http://www.w3.org/1999/xlink" x="0px" y="0px" viewBox="0 0 972.5 287.3"
	 overflow="visible" xml:space="preserve">
<g>
	<g>
		<g>
			<path fill="#666767" d="M1,223v-1.4l3.8-1V232H3.4v-9.7L1,223z"/>
			<path fill="#666767" d="M8.7,230.5c-0.8-1.1-1.2-2.5-1.2-4.1s0.4-3.1,1.2-4.1c0.8-1.1,1.8-1.6,3-1.6s2.2,0.5,3,1.6
				s1.2,2.5,1.2,4.1s-0.4,3.1-1.2,4.1s-1.8,1.6-3,1.6S9.5,231.6,8.7,230.5z M9.6,223.1c-0.5,0.8-0.8,1.9-0.8,3.2s0.3,2.4,0.8,3.2
				s1.2,1.2,2,1.2s1.5-0.4,2-1.2s0.8-1.9,0.8-3.2s-0.3-2.4-0.8-3.2s-1.2-1.2-2-1.2S10.1,222.3,9.6,223.1z"/>
		</g>
		<g>
			<path fill="#666767" d="M0,127.3l5.3-5.6c0.8-0.8,1.2-1.6,1.2-2.4c0-0.5-0.2-1-0.5-1.4s-0.9-0.6-1.5-0.6c-0.7,0-1.3,0.2-1.8,0.7
				c-0.4,0.5-0.7,1.2-0.7,2H0.6c0-1.2,0.3-2.2,1-2.9c0.7-0.7,1.6-1.1,2.8-1.1c0.6,0,1.1,0.1,1.6,0.3s0.8,0.5,1.1,0.8
				c0.3,0.3,0.5,0.7,0.6,1.1s0.2,0.8,0.2,1.2c0,1-0.5,2.1-1.5,3.1L2.8,126h5.1v1.3H0z"/>
			<path fill="#666767" d="M10.6,125.8c-0.8-1.1-1.2-2.5-1.2-4.1s0.4-3.1,1.2-4.1c0.8-1.1,1.8-1.6,3-1.6s2.2,0.5,3,1.6
				c0.8,1.1,1.2,2.5,1.2,4.1s-0.4,3.1-1.2,4.1s-1.8,1.6-3,1.6S11.4,126.9,10.6,125.8z M11.5,118.5c-0.5,0.8-0.8,1.9-0.8,3.2
				c0,1.3,0.3,2.4,0.8,3.2s1.2,1.2,2,1.2s1.5-0.4,2-1.2s0.8-1.9,0.8-3.2c0-1.3-0.3-2.4-0.8-3.2s-1.2-1.2-2-1.2
				S12.1,117.6,11.5,118.5z"/>
		</g>
		<g>
			<path fill="#666767" d="M4.2,22.8c-1.1,0-1.9-0.3-2.6-0.9s-1-1.3-1-2.2H2c0,0.5,0.2,1,0.6,1.3s0.9,0.5,1.6,0.5s1.1-0.2,1.5-0.5
				c0.4-0.4,0.6-0.8,0.6-1.5S6.1,18.3,5.6,18c-0.5-0.4-1.1-0.5-1.9-0.5v-1.2c0.7,0,1.2-0.2,1.6-0.6C5.8,15.3,6,14.8,6,14.3
				s-0.1-1-0.4-1.3s-0.7-0.5-1.3-0.5c-0.5,0-1,0.2-1.3,0.5s-0.5,0.7-0.5,1.2H1.1c0-0.9,0.3-1.6,0.9-2.1c0.6-0.5,1.3-0.8,2.3-0.8
				c0.9,0,1.7,0.3,2.2,0.9c0.6,0.6,0.9,1.3,0.9,2.1c0,0.6-0.2,1.1-0.5,1.5s-0.8,0.8-1.4,1c1.5,0.5,2.2,1.4,2.2,2.9
				c0,0.9-0.3,1.7-1,2.3C6.1,22.5,5.2,22.8,4.2,22.8z"/>
			<path fill="#666767" d="M10.2,21.1C9.4,20,9,18.6,9,17s0.4-3.1,1.2-4.1c0.8-1.1,1.8-1.6,3-1.6s2.2,0.5,3,1.6
				c0.8,1.1,1.2,2.5,1.2,4.1s-0.4,3.1-1.2,4.1s-1.8,1.6-3,1.6S11,22.2,10.2,21.1z M11.2,13.8c-0.5,0.8-0.8,1.9-0.8,3.2
				s0.3,2.4,0.8,3.2c0.5,0.8,1.2,1.2,2,1.2s1.5-0.4,2-1.2S16,18.3,16,17s-0.3-2.4-0.8-3.2s-1.2-1.2-2-1.2S11.7,12.9,11.2,13.8z"/>
		</g>
	</g>
	<g>
		<g>
			<path fill="#666767" d="M80.5,285.7c-0.8-1.1-1.2-2.5-1.2-4.1s0.4-3.1,1.2-4.1c0.8-1.1,1.8-1.6,3-1.6s2.2,0.5,3,1.6
				s1.2,2.5,1.2,4.1s-0.4,3.1-1.2,4.1s-1.8,1.6-3,1.6S81.2,286.8,80.5,285.7z M81.4,278.4c-0.5,0.8-0.8,1.9-0.8,3.2
				c0,1.3,0.3,2.4,0.8,3.2s1.2,1.2,2,1.2s1.5-0.4,2-1.2s0.8-1.9,0.8-3.2c0-1.3-0.3-2.4-0.8-3.2s-1.2-1.2-2-1.2
				S81.9,277.5,81.4,278.4z"/>
		</g>
		<g>
			<path fill="#666767" d="M207.2,278.2v-1.4l3.8-1v11.4h-1.4v-9.7L207.2,278.2z"/>
		</g>
		<g>
			<path fill="#666767" d="M328.5,287.2l5.3-5.6c0.8-0.8,1.2-1.6,1.2-2.4c0-0.5-0.2-1-0.5-1.4s-0.9-0.6-1.5-0.6
				c-0.7,0-1.3,0.2-1.8,0.7c-0.4,0.5-0.7,1.2-0.7,2h-1.4c0-1.2,0.3-2.2,1-2.9c0.7-0.7,1.6-1.1,2.8-1.1c0.6,0,1.1,0.1,1.6,0.3
				c0.5,0.2,0.8,0.5,1.1,0.8c0.3,0.3,0.5,0.7,0.6,1.1s0.2,0.8,0.2,1.2c0,1-0.5,2.1-1.5,3.1l-3.6,3.6h5.1v1.3h-7.9V287.2z"/>
		</g>
		<g>
			<path fill="#666767" d="M459,287.3c-1.1,0-1.9-0.3-2.6-0.9s-1-1.3-1-2.2h1.4c0,0.5,0.2,1,0.6,1.3s0.9,0.5,1.6,0.5
				c0.6,0,1.1-0.2,1.5-0.5c0.4-0.4,0.6-0.8,0.6-1.5s-0.2-1.2-0.7-1.5c-0.5-0.4-1.1-0.5-1.9-0.5v-1.2c0.7,0,1.2-0.2,1.6-0.6
				s0.6-0.8,0.6-1.4c0-0.5-0.1-1-0.4-1.3s-0.7-0.5-1.3-0.5c-0.5,0-1,0.2-1.3,0.5c-0.4,0.3-0.5,0.7-0.5,1.2h-1.3
				c0-0.9,0.3-1.6,0.9-2.1s1.3-0.8,2.3-0.8s1.7,0.3,2.2,0.9c0.6,0.6,0.9,1.3,0.9,2.1c0,0.6-0.2,1.1-0.5,1.5s-0.8,0.8-1.4,1
				c1.5,0.5,2.2,1.4,2.2,2.9c0,0.9-0.3,1.7-1,2.3C460.8,287.1,460,287.3,459,287.3z"/>
		</g>
		<g>
			<path fill="#666767" d="M586.1,284.9v2.2h-1.4v-2.2h-5.4l6.2-9h0.6v7.8h1.8v1.2H586.1z M584.8,283.7V279l-3.2,4.7H584.8z"/>
		</g>
		<g>
			<path fill="#666767" d="M711.4,283.5c0,1.2-0.4,2.2-1.1,2.8c-0.7,0.7-1.7,1-2.8,1c-1.7,0-3.1-0.8-4-2.4l1.2-0.8
				c0.3,0.5,0.7,0.9,1.2,1.3s1.1,0.5,1.7,0.5c0.8,0,1.4-0.2,1.8-0.7c0.4-0.5,0.7-1.1,0.7-1.9s-0.2-1.4-0.7-1.8s-1.1-0.7-1.8-0.7
				c-0.5,0-1,0.1-1.4,0.2s-0.9,0.4-1.4,0.8l1.5-6h5.3v1.2h-4.2l-0.8,3c0.5-0.3,1.1-0.4,1.7-0.4c1,0,1.8,0.4,2.4,1.1
				C711.1,281.5,711.4,282.4,711.4,283.5z"/>
		</g>
		<g>
			<path fill="#666767" d="M834,276h1.7l-3.2,4.1c0.3-0.2,0.7-0.3,1.3-0.3c0.9,0,1.7,0.3,2.3,1s1,1.6,1,2.6c0,1.1-0.4,2.1-1.1,2.8
				c-0.7,0.7-1.6,1.1-2.7,1.1c-1.1,0-2-0.4-2.7-1.1s-1.1-1.6-1.1-2.8c0-0.9,0.2-1.7,0.7-2.3L834,276z M831.6,281.6
				c-0.5,0.5-0.7,1.1-0.7,1.9s0.2,1.4,0.7,1.9s1.1,0.7,1.8,0.7s1.3-0.2,1.8-0.7s0.7-1.1,0.7-1.9s-0.2-1.4-0.7-1.9s-1.1-0.7-1.8-0.7
				C832.6,280.9,832,281.1,831.6,281.6z"/>
		</g>
		<g>
			<path fill="#666767" d="M955.9,277.3V276h7.8l-5.4,11.2h-1.4l4.8-9.9L955.9,277.3L955.9,277.3z"/>
		</g>
	</g>
	<g>
		
			<line fill="none" stroke="#D9D9D9" stroke-width="2.3297" stroke-linecap="round" stroke-linejoin="round" stroke-miterlimit="10" x1="89.3" y1="117.8" x2="959.7" y2="117.8"/>
		
			<line fill="none" stroke="#D9D9D9" stroke-width="2.3297" stroke-linecap="round" stroke-linejoin="round" stroke-miterlimit="10" x1="89.3" y1="12.5" x2="959.7" y2="12.5"/>
		<g>
			
				<line fill="none" stroke="#D9D9D9" stroke-width="2.3297" stroke-linecap="round" stroke-linejoin="round" stroke-miterlimit="10" x1="89.3" y1="222.8" x2="959.7" y2="222.8"/>
			<g>
				<image width="12" height="13" xlink:href="90AC664B.png"  transform="matrix(1 0 0 1 78 216.3)">
				</image>
				<image width="12" height="13" xlink:href="90AC6649.png"  transform="matrix(1 0 0 1 203 216.3)">
				</image>
				<image width="12" height="13" xlink:href="90AC664F.png"  transform="matrix(1 0 0 1 328 216.3)">
				</image>
				<image width="12" height="13" xlink:href="90AC6648.png"  transform="matrix(1 0 0 1 453 216.3)">
				</image>
				<image width="12" height="13" xlink:href="90AC6646.png"  transform="matrix(1 0 0 1 578 216.3)">
				</image>
				<image width="12" height="13" xlink:href="90AC6647.png"  transform="matrix(1 0 0 1 829 216.3)">
				</image>
				<image width="12" height="13" xlink:href="90AC6657.png"  transform="matrix(1 0 0 1 703 216.3)">
				</image>
				<image width="12" height="13" xlink:href="90AC6659.png"  transform="matrix(1 0 0 1 954 216.3)">
				</image>
			</g>
			<g>
				<path fill="#CCCCCC" d="M146.3,222.8c0,2-1.6,3.7-3.7,3.7c-2,0-3.7-1.6-3.7-3.7c0-2,1.6-3.7,3.7-3.7S146.3,220.8,146.3,222.8z"
					/>
				<circle fill="#CCCCCC" cx="268.3" cy="222.8" r="3.7"/>
				<path fill="#CCCCCC" d="M397.6,222.8c0,2-1.6,3.7-3.7,3.7c-2,0-3.7-1.6-3.7-3.7c0-2,1.6-3.7,3.7-3.7
					C395.9,219.1,397.6,220.8,397.6,222.8z"/>
				<circle fill="#CCCCCC" cx="519.5" cy="222.8" r="3.7"/>
				<path fill="#CCCCCC" d="M648.8,222.8c0,2-1.6,3.7-3.7,3.7c-2,0-3.7-1.6-3.7-3.7c0-2,1.6-3.7,3.7-3.7
					C647.1,219.1,648.8,220.8,648.8,222.8z"/>
				<path fill="#CCCCCC" d="M774.4,222.8c0,2-1.6,3.7-3.7,3.7c-2,0-3.7-1.6-3.7-3.7c0-2,1.6-3.7,3.7-3.7
					C772.8,219.1,774.4,220.8,774.4,222.8z"/>
				<circle fill="#CCCCCC" cx="896.3" cy="222.8" r="3.7"/>
			</g>
		</g>
	</g>
	<g>
		
			<linearGradient id="SVGID_1_" gradientUnits="userSpaceOnUse" x1="92.6407" y1="185.75" x2="964.3593" y2="185.75" gradientTransform="matrix(1 0 0 -1 0 290)">
			<stop  offset="0" style="stop-color:#F6B579"/>
			<stop  offset="1" style="stop-color:#E84256"/>
		</linearGradient>
		
			<path fill="none" stroke="url(#SVGID_1_)" stroke-width="9.3186" stroke-linecap="round" stroke-linejoin="round" stroke-miterlimit="10" d="
			M97.3,197.3L179.5,63c18.1-32,52.1-51.8,88.9-51.8H310c19.3,0,38.3,5.5,54.6,15.8l69.5,44c16.3,10.3,35.3,15.8,54.6,15.8h65
			c23.4,0,46-8,64.2-22.7l30-24.1c36.2-29.3,87.6-30.3,125-2.6l0,0C879,96.5,959.7,12.5,959.7,12.5"/>
		<image width="28" height="29" xlink:href="90AC665B.png"  transform="matrix(1 0 0 1 195 16.3)">
		</image>
		<image width="28" height="29" xlink:href="E8EAC8E8.png"  transform="matrix(1 0 0 1 320 -0.7)">
		</image>
		<image width="28" height="29" xlink:href="E8EAC8EF.png"  transform="matrix(1 0 0 1 445 68.3)">
		</image>
		<image width="28" height="29" xlink:href="E8EAC8E9.png"  transform="matrix(1 0 0 1 570 68.3)">
		</image>
		<image width="29" height="28" xlink:href="E8EAC8EB.png"  transform="matrix(1 0 0 1 695 5.3)">
		</image>
		<image width="29" height="29" xlink:href="E8EAC8F6.png"  transform="matrix(1 0 0 1 820 42.3)">
		</image>
		<image width="28" height="28" xlink:href="E8EAC8F7.png"  transform="matrix(1 0 0 1 945 3.3)">
		</image>
	</g>
</g>
</svg>
