<?xml version="1.0" encoding="utf-8"?>
<!-- Generator: Adobe Illustrator 26.0.2, SVG Export Plug-In . SVG Version: 6.00 Build 0)  -->
<svg version="1.2" baseProfile="tiny" id="レイヤー_1"
	 xmlns="http://www.w3.org/2000/svg" xmlns:xlink="http://www.w3.org/1999/xlink" x="0px" y="0px" viewBox="0 0 967.3 277.2"
	 overflow="visible" xml:space="preserve">
<g>
	<g>
		<g>
			<path fill="#666767" d="M3.1,212.9L3.1,212.9l-1.8,1L1,212.8l2.3-1.2h1.2V222H3.1V212.9z"/>
			<path fill="#666767" d="M15.2,216.7c0,3.5-1.3,5.5-3.6,5.5c-2,0-3.4-1.9-3.4-5.3c0-3.5,1.5-5.4,3.6-5.4
				C13.9,211.5,15.2,213.4,15.2,216.7z M9.5,216.9c0,2.7,0.8,4.2,2.1,4.2c1.4,0,2.1-1.7,2.1-4.3c0-2.6-0.7-4.2-2.1-4.2
				C10.4,212.5,9.5,214,9.5,216.9z"/>
		</g>
		<g>
			<path fill="#666767" d="M0,117.9V117l1.1-1.1c2.7-2.5,3.9-3.9,3.9-5.4c0-1.1-0.5-2-2.1-2c-0.9,0-1.7,0.5-2.2,0.9l-0.4-1
				c0.7-0.6,1.7-1.1,2.9-1.1c2.2,0,3.2,1.5,3.2,3c0,1.9-1.4,3.5-3.6,5.6L2,116.7v0h4.7v1.2H0z"/>
			<path fill="#666767" d="M15.2,112.6c0,3.5-1.3,5.5-3.6,5.5c-2,0-3.4-1.9-3.4-5.3c0-3.5,1.5-5.4,3.6-5.4
				C13.9,107.3,15.2,109.3,15.2,112.6z M9.5,112.7c0,2.7,0.8,4.2,2.1,4.2c1.4,0,2.1-1.7,2.1-4.3c0-2.6-0.7-4.2-2.1-4.2
				C10.4,108.4,9.5,109.9,9.5,112.7z"/>
		</g>
		<g>
			<path fill="#666767" d="M0.4,12.1c0.4,0.3,1.3,0.7,2.3,0.7c1.8,0,2.4-1.2,2.4-2c0-1.5-1.3-2.1-2.7-2.1H1.6V7.6h0.8
				c1,0,2.3-0.5,2.3-1.8c0-0.8-0.5-1.6-1.8-1.6C2,4.3,1.2,4.7,0.8,5L0.4,4C0.9,3.6,2,3.2,3.1,3.2c2,0,3,1.2,3,2.5
				c0,1.1-0.6,2-1.9,2.4v0c1.3,0.3,2.3,1.2,2.3,2.7c0,1.7-1.3,3.1-3.8,3.1c-1.2,0-2.2-0.4-2.7-0.7L0.4,12.1z"/>
			<path fill="#666767" d="M15.2,8.4c0,3.5-1.3,5.5-3.6,5.5c-2,0-3.4-1.9-3.4-5.3c0-3.5,1.5-5.4,3.6-5.4C13.9,3.2,15.2,5.1,15.2,8.4
				z M9.5,8.6c0,2.7,0.8,4.2,2.1,4.2c1.4,0,2.1-1.7,2.1-4.3c0-2.6-0.7-4.2-2.1-4.2C10.4,4.2,9.5,5.7,9.5,8.6z"/>
		</g>
	</g>
	<g>
		<g>
			<path fill="#666767" d="M85.6,271.7c0,3.5-1.3,5.5-3.6,5.5c-2,0-3.4-1.9-3.4-5.3c0-3.5,1.5-5.4,3.6-5.4
				C84.3,266.4,85.6,268.4,85.6,271.7z M79.9,271.8c0,2.7,0.8,4.2,2.1,4.2c1.4,0,2.1-1.7,2.1-4.3c0-2.6-0.7-4.2-2.1-4.2
				C80.8,267.5,79.9,269,79.9,271.8z"/>
		</g>
		<g>
			<path fill="#666767" d="M207,267.9L207,267.9l-1.8,1l-0.3-1.1l2.3-1.2h1.2V277H207V267.9z"/>
		</g>
		<g>
			<path fill="#666767" d="M327.9,277v-0.9l1.1-1.1c2.7-2.5,3.9-3.9,3.9-5.4c0-1.1-0.5-2-2.1-2c-0.9,0-1.7,0.5-2.2,0.9l-0.4-1
				c0.7-0.6,1.7-1.1,2.9-1.1c2.2,0,3.2,1.5,3.2,3c0,1.9-1.4,3.5-3.6,5.6l-0.8,0.8v0h4.7v1.2H327.9z"/>
		</g>
		<g>
			<path fill="#666767" d="M454.1,275.4c0.4,0.3,1.3,0.7,2.3,0.7c1.8,0,2.4-1.2,2.4-2c0-1.5-1.3-2.1-2.7-2.1h-0.8v-1.1h0.8
				c1,0,2.3-0.5,2.3-1.8c0-0.8-0.5-1.6-1.8-1.6c-0.8,0-1.6,0.4-2.1,0.7l-0.4-1c0.5-0.4,1.6-0.8,2.7-0.8c2,0,3,1.2,3,2.5
				c0,1.1-0.6,2-1.9,2.4v0c1.3,0.3,2.3,1.2,2.3,2.7c0,1.7-1.3,3.1-3.8,3.1c-1.2,0-2.2-0.4-2.7-0.7L454.1,275.4z"/>
		</g>
		<g>
			<path fill="#666767" d="M581,277v-2.8h-4.8v-0.9l4.6-6.6h1.5v6.5h1.5v1.1h-1.5v2.8H581z M581,273.1v-3.5c0-0.5,0-1.1,0-1.6h0
				c-0.3,0.6-0.6,1.1-0.9,1.5l-2.5,3.5v0H581z"/>
		</g>
		<g>
			<path fill="#666767" d="M707.7,267.8h-4l-0.4,2.7c0.2,0,0.5-0.1,0.8-0.1c0.8,0,1.6,0.2,2.2,0.6c0.8,0.5,1.5,1.4,1.5,2.7
				c0,2-1.6,3.6-3.9,3.6c-1.1,0-2.1-0.3-2.6-0.6l0.4-1.1c0.4,0.3,1.3,0.6,2.2,0.6c1.3,0,2.5-0.9,2.5-2.3c0-1.3-0.9-2.3-3-2.3
				c-0.6,0-1.1,0.1-1.4,0.1l0.7-5h5V267.8z"/>
		</g>
		<g>
			<path fill="#666767" d="M831.7,267.7c-0.3,0-0.7,0-1.1,0.1c-2.2,0.4-3.4,2-3.6,3.7h0c0.5-0.7,1.4-1.2,2.5-1.2
				c1.8,0,3.1,1.3,3.1,3.4c0,1.9-1.3,3.7-3.5,3.7c-2.2,0-3.7-1.7-3.7-4.4c0-2,0.7-3.7,1.8-4.7c0.9-0.8,2-1.4,3.3-1.5
				c0.4-0.1,0.8-0.1,1-0.1V267.7z M831.3,273.7c0-1.5-0.8-2.4-2.1-2.4c-0.8,0-1.6,0.5-2,1.3c-0.1,0.2-0.2,0.4-0.2,0.6
				c0,1.7,0.8,3,2.3,3C830.5,276.2,831.3,275.2,831.3,273.7z"/>
		</g>
		<g>
			<path fill="#666767" d="M958.1,266.6v0.9l-4.5,9.5h-1.5l4.5-9.2v0h-5.1v-1.2H958.1z"/>
		</g>
	</g>
	<g>
		<g>
			
				<line fill="none" stroke="#D9D9D9" stroke-width="2.318" stroke-linecap="round" stroke-linejoin="round" stroke-miterlimit="10" x1="88.5" y1="108.2" x2="954.6" y2="108.2"/>
			
				<line fill="none" stroke="#D9D9D9" stroke-width="2.318" stroke-linecap="round" stroke-linejoin="round" stroke-miterlimit="10" x1="88.5" y1="3.6" x2="954.6" y2="3.6"/>
			<g>
				
					<line fill="none" stroke="#D9D9D9" stroke-width="2.318" stroke-linecap="round" stroke-linejoin="round" stroke-miterlimit="10" x1="88.5" y1="212.9" x2="954.6" y2="212.9"/>
				<g>
					<linearGradient id="SVGID_1_" gradientUnits="userSpaceOnUse" x1="77.1188" y1="212.9385" x2="985.8321" y2="212.9385">
						<stop  offset="0" style="stop-color:#DC4894"/>
						<stop  offset="1" style="stop-color:#5A479A"/>
					</linearGradient>
					<path fill="url(#SVGID_1_)" d="M88.5,212.9c0,3.1-2.5,5.6-5.6,5.6c-3.1,0-5.6-2.5-5.6-5.6c0-3.1,2.5-5.6,5.6-5.6
						C86,207.4,88.5,209.9,88.5,212.9z"/>
					
						<linearGradient id="SVGID_00000060027580559400291700000010466935877461497504_" gradientUnits="userSpaceOnUse" x1="77.1233" y1="212.9385" x2="985.8366" y2="212.9385">
						<stop  offset="0" style="stop-color:#DC4894"/>
						<stop  offset="1" style="stop-color:#5A479A"/>
					</linearGradient>
					<path fill="url(#SVGID_00000060027580559400291700000010466935877461497504_)" d="M213,212.9c0,3.1-2.5,5.6-5.6,5.6
						c-3.1,0-5.6-2.5-5.6-5.6c0-3.1,2.5-5.6,5.6-5.6C210.5,207.4,213,209.9,213,212.9z"/>
					
						<linearGradient id="SVGID_00000088829576528913936390000013951664855309880254_" gradientUnits="userSpaceOnUse" x1="77.127" y1="212.9385" x2="985.8403" y2="212.9385">
						<stop  offset="0" style="stop-color:#DC4894"/>
						<stop  offset="1" style="stop-color:#5A479A"/>
					</linearGradient>
					<path fill="url(#SVGID_00000088829576528913936390000013951664855309880254_)" d="M337.5,212.9c0,3.1-2.5,5.6-5.6,5.6
						c-3.1,0-5.6-2.5-5.6-5.6c0-3.1,2.5-5.6,5.6-5.6C335,207.4,337.5,209.9,337.5,212.9z"/>
					
						<linearGradient id="SVGID_00000048490942131465388400000015801163951142381702_" gradientUnits="userSpaceOnUse" x1="77.1318" y1="212.9385" x2="985.8451" y2="212.9385">
						<stop  offset="0" style="stop-color:#DC4894"/>
						<stop  offset="1" style="stop-color:#5A479A"/>
					</linearGradient>
					<path fill="url(#SVGID_00000048490942131465388400000015801163951142381702_)" d="M462.1,212.9c0,3.1-2.5,5.6-5.6,5.6
						c-3.1,0-5.6-2.5-5.6-5.6c0-3.1,2.5-5.6,5.6-5.6C459.6,207.4,462.1,209.9,462.1,212.9z"/>
					
						<linearGradient id="SVGID_00000139984070937015048030000003123840596994085280_" gradientUnits="userSpaceOnUse" x1="77.1355" y1="212.9385" x2="985.8488" y2="212.9385">
						<stop  offset="0" style="stop-color:#DC4894"/>
						<stop  offset="1" style="stop-color:#5A479A"/>
					</linearGradient>
					<path fill="url(#SVGID_00000139984070937015048030000003123840596994085280_)" d="M586.6,212.9c0,3.1-2.5,5.6-5.6,5.6
						c-3.1,0-5.6-2.5-5.6-5.6c0-3.1,2.5-5.6,5.6-5.6C584.1,207.4,586.6,209.9,586.6,212.9z"/>
					
						<linearGradient id="SVGID_00000132807478660942323950000010932335202358006972_" gradientUnits="userSpaceOnUse" x1="77.144" y1="212.9385" x2="985.8573" y2="212.9385">
						<stop  offset="0" style="stop-color:#DC4894"/>
						<stop  offset="1" style="stop-color:#5A479A"/>
					</linearGradient>
					<path fill="url(#SVGID_00000132807478660942323950000010932335202358006972_)" d="M835.6,212.9c0,3.1-2.5,5.6-5.6,5.6
						c-3.1,0-5.6-2.5-5.6-5.6c0-3.1,2.5-5.6,5.6-5.6C833.1,207.4,835.6,209.9,835.6,212.9z"/>
					
						<linearGradient id="SVGID_00000098943192758399600780000017754631480584439226_" gradientUnits="userSpaceOnUse" x1="77.1403" y1="212.9385" x2="985.8536" y2="212.9385">
						<stop  offset="0" style="stop-color:#DC4894"/>
						<stop  offset="1" style="stop-color:#5A479A"/>
					</linearGradient>
					<path fill="url(#SVGID_00000098943192758399600780000017754631480584439226_)" d="M711.1,212.9c0,3.1-2.5,5.6-5.6,5.6
						c-3.1,0-5.6-2.5-5.6-5.6c0-3.1,2.5-5.6,5.6-5.6C708.6,207.4,711.1,209.9,711.1,212.9z"/>
					
						<linearGradient id="SVGID_00000041279230071595297740000004044535357240727998_" gradientUnits="userSpaceOnUse" x1="77.1488" y1="212.9385" x2="985.8621" y2="212.9385">
						<stop  offset="0" style="stop-color:#DC4894"/>
						<stop  offset="1" style="stop-color:#5A479A"/>
					</linearGradient>
					<path fill="url(#SVGID_00000041279230071595297740000004044535357240727998_)" d="M960.1,212.9c0,3.1-2.5,5.6-5.6,5.6
						c-3.1,0-5.6-2.5-5.6-5.6c0-3.1,2.5-5.6,5.6-5.6C957.6,207.4,960.1,209.9,960.1,212.9z"/>
				</g>
				<g>
					<path fill="#CCCCCC" d="M145.2,212.9c0,2-1.6,3.7-3.7,3.7c-2,0-3.7-1.6-3.7-3.7c0-2,1.6-3.7,3.7-3.7
						C143.6,209.3,145.2,210.9,145.2,212.9z"/>
					<path fill="#CCCCCC" d="M270.2,212.9c0,2-1.6,3.7-3.7,3.7c-2,0-3.7-1.6-3.7-3.7c0-2,1.6-3.7,3.7-3.7
						C268.6,209.3,270.2,210.9,270.2,212.9z"/>
					<path fill="#CCCCCC" d="M395.2,212.9c0,2-1.6,3.7-3.7,3.7c-2,0-3.7-1.6-3.7-3.7c0-2,1.6-3.7,3.7-3.7
						C393.6,209.3,395.2,210.9,395.2,212.9z"/>
					<path fill="#CCCCCC" d="M520.2,212.9c0,2-1.6,3.7-3.7,3.7c-2,0-3.7-1.6-3.7-3.7c0-2,1.6-3.7,3.7-3.7
						C518.6,209.3,520.2,210.9,520.2,212.9z"/>
					<path fill="#CCCCCC" d="M645.2,212.9c0,2-1.6,3.7-3.7,3.7c-2,0-3.7-1.6-3.7-3.7c0-2,1.6-3.7,3.7-3.7
						C643.6,209.3,645.2,210.9,645.2,212.9z"/>
					<path fill="#CCCCCC" d="M770.2,212.9c0,2-1.6,3.7-3.7,3.7c-2,0-3.7-1.6-3.7-3.7c0-2,1.6-3.7,3.7-3.7
						C768.5,209.3,770.2,210.9,770.2,212.9z"/>
					<path fill="#CCCCCC" d="M895.2,212.9c0,2-1.6,3.7-3.7,3.7s-3.7-1.6-3.7-3.7c0-2,1.6-3.7,3.7-3.7S895.2,210.9,895.2,212.9z"/>
				</g>
			</g>
		</g>
		<g>
			
				<linearGradient id="SVGID_00000057121942432969241640000006973852933918506685_" gradientUnits="userSpaceOnUse" x1="80.9736" y1="65.0294" x2="959.1891" y2="65.0294">
				<stop  offset="0" style="stop-color:#DC4894"/>
				<stop  offset="1" style="stop-color:#5A479A"/>
			</linearGradient>
			
				<path fill="none" stroke="url(#SVGID_00000057121942432969241640000006973852933918506685_)" stroke-width="9.272" stroke-linecap="round" stroke-linejoin="round" stroke-miterlimit="10" d="
				M85.6,125.4l61.3-36.3c33.5-19.9,75.6-18.4,107.6,3.8h0c41.3,28.6,97.4,22.7,131.9-13.9l40-42.4c19.2-20.4,46-31.9,74-31.9h41.8
				c28.3,0,55.3,11.8,74.6,32.5l28,30.2c34.2,36.9,91.1,41.1,130.5,9.7h0c30.1-24,71.2-28.6,105.8-11.8l73.4,35.7"/>
		</g>
	</g>
</g>
</svg>
