<?xml version="1.0" encoding="utf-8"?>
<!-- Generator: Adobe Illustrator 26.5.0, SVG Export Plug-In . SVG Version: 6.00 Build 0)  -->
<svg version="1.1" id="レイヤー_1" xmlns="http://www.w3.org/2000/svg" xmlns:xlink="http://www.w3.org/1999/xlink" x="0px"
	 y="0px" viewBox="0 0 174.8 36.5" style="enable-background:new 0 0 174.8 36.5;" xml:space="preserve">
<style type="text/css">
	.st0{fill:#3178DD;}
</style>
<text transform="matrix(1 0 0 1 204.3014 521.6551)" style="fill:#606060; font-family:'YuGothic-Bold'; font-size:36px;">a</text>
<text transform="matrix(1 0 0 1 228.8546 521.6551)" style="fill:#606060; font-family:'YuGothic-Bold'; font-size:36px;">a</text>
<path class="st0" d="M20.5,10.9c0-4.9-6.7-5-7-5H7.2l7,10l0.2,0C16.2,15.8,20.5,15,20.5,10.9z M14.5,14.7L9.3,7.2h4.2
	c0.1,0,6.1,0.1,6.1,3.7C19.6,13.8,16,14.5,14.5,14.7z"/>
<path class="st0" d="M160.1,0l-14.6,36.5h7.5l1.5-3.9h4.7c0-0.3,0-0.6,0-0.9c0-0.1,0-0.2,0-0.3v-4.6c0-0.4,0-0.8,0-1.2v0h-1v0h-1.4
	l3.3-9.5l3.3,9.5h-1.3v0h-1v0c0,0.4,0,0.8,0,1.2v4.6c0,0.1,0,0.2,0,0.3c0,0.3,0,0.6,0,0.9h4.7l1.5,3.9h7.5L160.1,0z M166.6,31.4
	h-4.5v-4.6h3.1l-5-14.4l-5,14.4h3.1v4.6h-4.5l-1.7,4.1h-4.9l13-32.2l13,32.3h-4.9L166.6,31.4z"/>
<path class="st0" d="M27,10.9C27,0.2,14,0.1,13.5,0.1H0v6.7L5,14l0,0l5.5,7.8l0,0l10.2,14.7h8.9L18.9,21C24.1,19.4,27,15.8,27,10.9z
	 M27.7,35.4h-6.4L11,20.6l0,0L7.8,16l0-0.1l-0.5-0.7L6,13.5l0,0L1,6.3v-5h12.5c0.1,0,12.6,0.1,12.6,9.6c0,5.8-4.5,8.1-8.2,9L17,20.2
	L27.7,35.4z"/>
<path class="st0" d="M3.4,16.9l-1,0l0,0H0.1v19.5h6.7V23.3l0,0l0-1.2L3.4,16.9z M6,35.6H1V18h2.2L6,22.4V35.6z"/>
<path class="st0" d="M74.3,18.1l-8.1,0.1l-1-1.9c0,0,0,0,0,0L56.7,0.1H50v36.4h7v-18l8.1-0.1l1,1.9c0,0,0,0,0,0l8.5,16.2h6.7V0.1h-7
	V18.1z M55.7,17.3v18.1h-4.5V1.3H56l8.1,15.9L55.7,17.3z M75.5,1.3H80v33.9h-4.9l-8.1-15.9l8.5-0.1V1.3z"/>
<path class="st0" d="M97.3,14.7c-5.9,0-10.7,4.9-10.7,10.9s4.8,10.9,10.7,10.9S108,31.6,108,25.6S103.2,14.7,97.3,14.7z M97.3,35.1
	c-5.2,0-9.4-4.3-9.4-9.5s4.2-9.5,9.4-9.5c5.2,0,9.4,4.2,9.4,9.5C106.7,30.8,102.5,35.1,97.3,35.1z"/>
<path class="st0" d="M97.3,20.1c-3.1,0-5.6,2.5-5.6,5.7c0,3.1,2.5,5.7,5.6,5.7c3.1,0,5.6-2.5,5.6-5.7
	C102.9,22.7,100.4,20.1,97.3,20.1z M97.3,30.2c-2.4,0-4.4-2-4.4-4.4c0-2.4,2-4.4,4.4-4.4s4.4,2,4.4,4.4
	C101.7,28.2,99.7,30.2,97.3,30.2z"/>
<path class="st0" d="M119.3,16.1L119.3,16.1c0.5-5.7,4.3-9.4,10-9.4c2.7,0,5.3,1.1,7.2,3l0.4,0.4l4.6-4.6L141.1,5
	c-3.1-3.2-7.3-5-11.7-5c-9.2,0-16,6.6-16.6,16h0v0.8h6.6V16.1z M129.3,1.2c4,0,7.7,1.5,10.5,4.2l-3,3c-2-1.9-4.8-2.9-7.6-2.9
	c-6.3,0-10.6,4.2-11.1,10.5h-4.3C114.4,7.3,120.6,1.2,129.3,1.2z"/>
<path class="st0" d="M119.3,19.7h-6.6v0.8h0c0.6,9.3,7.4,16,16.6,16c4.5,0,8.6-1.8,11.7-5l0.4-0.4l-4.6-4.6l-0.4,0.4
	c-1.9,1.9-4.5,3-7.2,3c-5.7,0-9.5-3.6-10-9.4h0V19.7z M113.9,20.5h4.3c0.5,6.4,4.9,10.5,11.1,10.5c2.8,0,5.5-1.1,7.6-2.9l3,3
	c-2.8,2.7-6.5,4.2-10.5,4.2C120.6,35.3,114.4,29.3,113.9,20.5z"/>
<path class="st0" d="M35.4,24.9c-0.1,0-0.1,0-0.2,0v11.5H42V25.8v-0.9v0L35.4,24.9L35.4,24.9z M36.4,26h4.5v9.3h-4.5V26z"/>
<path class="st0" d="M35.4,15.5c-0.1,0-0.1,0-0.2,0V22H42v-5.7v-0.9v0L35.4,15.5L35.4,15.5z M36.4,16.5h4.5v4.4h-4.5V16.5z"/>
</svg>
