<?xml version="1.0" encoding="utf-8"?>
<!-- Generator: Adobe Illustrator 26.1.0, SVG Export Plug-In . SVG Version: 6.00 Build 0)  -->
<svg version="1.1" id="レイヤー_1" xmlns="http://www.w3.org/2000/svg" xmlns:xlink="http://www.w3.org/1999/xlink" x="0px"
	 y="0px" viewBox="0 0 118 35.4" style="enable-background:new 0 0 118 35.4;" xml:space="preserve">
<style type="text/css">
	.st0{fill:#DA3AB3;}
	.st1{fill:#FFC843;}
	.st2{fill:#DA2D2F;}
	.st3{fill:#00B3E3;}
	.st4{fill:#00299F;}
	.st5{fill:#008C3C;}
	.st6{fill:#00202A;}
	.st7{fill:#FF4338;}
	.st8{fill:#05CE7C;}
	.st9{fill:#042F57;}
	.st10{fill:#002F32;}
	.st11{fill:#FF6B00;}
	.st12{fill:#DA1800;}
</style>
<g>
	<g>
		<g>
			<polyline class="st0" points="0,0 0,0 0,4.2 1.8,4.2 1.8,24.3 6,24.3 6,14.2 1.8,14.2 1.8,10 1.8,10 6,10 6,4.2 0,4.2 0,0 			"/>
			<path class="st1" d="M8.9,0H2.1C4.3,0,6,1.8,6,3.9v0.3h2.9c1.6,0,2.9,1.3,2.9,2.9S10.6,10,9,10c1.9,0,3.6,0.8,4.9,2.1
				c2-2,2.6-5.1,1.5-7.7S11.8,0,8.9,0 M8.9,14.2H6v0L8.9,14.2c0,0,0.1,0,0.1,0C9,14.2,9,14.2,8.9,14.2"/>
			<path class="st2" d="M2.1,0H0v4.2h6V3.9C6,1.8,4.3,0,2.1,0 M1.8,10L1.8,10v4.2H6v0H1.8L1.8,10"/>
			<path class="st3" d="M8.9,10H6v0L8.9,10C9,10,9,10,9,10C9,10,9,10,8.9,10 M14,12.1c-1.3,1.3-3.1,2.1-4.9,2.1
				c1.6,0.1,2.8,1.3,2.8,2.9v7.1h4.2v-7.1C16.1,15.3,15.3,13.5,14,12.1"/>
			<polyline class="st4" points="6,10 1.8,10 1.8,10 6,10 6,10 			"/>
			<path class="st5" d="M9,10c0,0-0.1,0-0.1,0H6v4.2h2.9c0,0,0.1,0,0.1,0c1.9,0,3.6-0.8,4.9-2.1C12.7,10.8,10.9,10.1,9,10"/>
			<polyline class="st6" points="6,10 1.8,10 1.8,14.2 6,14.2 6,10 			"/>
		</g>
		<g>
			<polyline class="st3" points="23,9.1 18.8,9.1 18.8,24.3 23,24.3 23,9.1 			"/>
			<polyline class="st7" points="23,0.1 18.8,0.1 18.8,4.5 23,4.5 23,0.1 			"/>
		</g>
		<g>
			<path class="st0" d="M40.8,0h-4.2v9.8c2.6,1.3,4.2,3.9,4.2,6.8V0 M40.8,16.7c0,2.9-1.6,5.5-4.2,6.8v0.8h4.2V16.7"/>
			<path class="st8" d="M33.1,9c-3.2,0-6,1.9-7.1,4.9s-0.3,6.3,2,8.4s5.7,2.6,8.6,1.2v-6.8c0,1.9-1.5,3.4-3.4,3.4
				c-1.9,0-3.4-1.5-3.4-3.4c0-1.9,1.5-3.4,3.4-3.4c1.9,0,3.4,1.5,3.4,3.4V9.9C35.5,9.3,34.3,9,33.1,9"/>
			<path class="st9" d="M36.6,9.9v6.8v6.8c2.6-1.3,4.2-3.9,4.2-6.8l0,0C40.8,13.8,39.1,11.2,36.6,9.9"/>
		</g>
		<g>
			<path class="st7" d="M50.8,9c-2.9,0-5.6,1.7-6.9,4.3c-1.3,2.6-1,5.7,0.8,8c0.9-0.8,2-1.2,3.2-1.2h2.8c-1.9,0-3.4-1.5-3.4-3.4
				s1.5-3.4,3.4-3.4s3.4,1.5,3.4,3.4l0,0v-3.5c0-1,0.4-1.9,1-2.7C54,9.5,52.4,9,50.8,9"/>
			<path class="st3" d="M60.5,9h-2.1c-1.1,0-2.1,0.4-2.9,1.2c-0.1,0.1-0.1,0.1-0.2,0.2c2,1.4,3.2,3.7,3.2,6.2l0,0v-3.4h2L60.5,9
				 M58.1,18.9c-1,3.2-3.9,5.5-7.3,5.5l0,0C54.2,24.3,57.2,22.1,58.1,18.9 M44.8,21.4c-1.5,1.3-2,3.5-1.3,5.4s2.5,3.1,4.5,3.1h5.6
				c0.4,0,0.7,0.3,0.7,0.7c0,0.4-0.3,0.7-0.7,0.7h-4.9v4.2h4.9c2.7,0,4.9-2.2,4.9-4.9s-2.2-4.9-4.9-4.9H48c-0.4,0-0.7-0.3-0.7-0.7
				c0-0.4,0.3-0.7,0.7-0.7h2.8C48.5,24.3,46.2,23.2,44.8,21.4"/>
			<path class="st10" d="M55.3,10.5c-0.6,0.7-1,1.7-1,2.7v3.5c0,1.9-1.5,3.4-3.4,3.4H48c-1.2,0-2.4,0.4-3.2,1.2c1.4,1.9,3.7,3,6,3
				l0,0c3.3,0,6.3-2.1,7.3-5.3S58,12.4,55.3,10.5"/>
		</g>
		<g>
			<path class="st11" d="M69.8,9c-4.2,0-7.6,3.4-7.6,7.6c0,4.3,3.5,7.6,7.9,7.6c2.3,0,4.1-0.7,6.1-2.4l-2.7-3.2
				C72.2,19.7,71.2,20,70,20c-0.6,0-1.2-0.1-1.8-0.5l-0.1,0.1l-4.3,1.8c-0.8-1-1.3-2.2-1.5-3.4l4.3-1.8v0c0.1-1.2,0.9-2.2,1.9-2.7
				c0.4-0.2,0.8-0.3,1.2-0.2c0.7,0,1.5,0.2,2,0.7c0,0,0,0,0.1,0.1l4.2-1.7c0.3,0.4,0.5,0.8,0.7,1.3C75.6,10.8,72.8,9,69.8,9
				 M76.8,13.6L76.8,13.6L76.8,13.6 M76.8,13.6L76.8,13.6L76.8,13.6 M76.8,13.6L76.8,13.6L76.8,13.6 M76.9,13.7L76.9,13.7L76.9,13.7
				 M77.7,15.7l-4.2,1.7L77.7,15.7"/>
			<path class="st0" d="M76.8,13.6L76.8,13.6L76.8,13.6 M76.8,13.6L76.8,13.6L76.8,13.6 M76.8,13.6L76.8,13.6L76.8,13.6 M76.8,13.6
				L76.8,13.6L76.8,13.6 M76.9,13.7L76.9,13.7l0.8,2L76.9,13.7L76.9,13.7 M71.8,14l-2.6,1.1l-2.5,1l-0.2,0.1
				c-0.2,1.8,0.7,2.8,1.5,3.3c0,0,0.1,0.1,0.1,0.1l4.7-1.9l0.6-0.2C73.5,17.4,73,15,71.8,14"/>
			<path class="st12" d="M76.1,12.3L71.8,14c1.1,1,1.6,3.4,1.6,3.4l4.2-1.7l-0.8-1.9l0,0l0,0l0,0l0,0l0,0l0,0l0,0l0,0l0,0
				C76.6,13.1,76.4,12.7,76.1,12.3 M66.6,16.2l-4.3,1.8c0.2,1.3,0.7,2.4,1.5,3.4l4.3-1.8l0.1-0.1c0,0-0.1-0.1-0.1-0.1
				C67.3,18.9,66.4,17.9,66.6,16.2"/>
		</g>
		<g>
			<path class="st1" d="M103.9,11.1c-1.3,2-3.5,3.2-5.9,3.2h2.3c1.6,0,2.9,1.3,2.9,2.9c0,1.6-1.3,2.9-2.9,2.9h-5.2v4.2h-4.2h9.4
				c3.2,0,6-2.1,6.9-5.2C108,16,106.7,12.7,103.9,11.1"/>
			<path class="st3" d="M89.1,0L89.1,0v4.2h1.8v5.8h4.2V4.2h-6L89.1,0 M95.1,14.3h-4.2v5.8h4.2V14.3"/>
			<polyline class="st5" points="95.1,20.1 90.9,20.1 90.9,24.3 95.1,24.3 95.1,20.1 			"/>
			<path class="st0" d="M98,0h-6.8c2.2,0,3.9,1.8,3.9,3.9v0.3H98c1,0,2,0.5,2.5,1.5c0.5,0.9,0.5,2,0,2.9c-0.5,0.9-1.5,1.5-2.5,1.5
				h2.3c1.3,0,2.5,0.3,3.6,1c1.4-2.2,1.6-5,0.3-7.3C103,1.5,100.6,0,98,0"/>
			<path class="st2" d="M100.3,10.1h-5.2v4.2H98c2.4,0,4.6-1.2,5.9-3.2C102.9,10.4,101.6,10.1,100.3,10.1"/>
			<path class="st4" d="M91.2,0h-2.1v4.2h6V4C95.1,1.8,93.3,0,91.2,0"/>
			<polyline class="st6" points="95.1,10.1 90.9,10.1 90.9,14.3 95.1,14.3 95.1,10.1 			"/>
		</g>
		<g>
			<path class="st3" d="M116.2,0.1H112v0L116.2,0.1L116.2,0.1 M116.2,4.3H112v15.8h4.2L116.2,4.3"/>
			<path class="st7" d="M118,20.1h-1.8v4.2h1.8V20.1 M112,20.1h-1.8v4.2h1.8V20.1"/>
			<polyline class="st10" points="116.2,20.1 112,20.1 112,24.3 116.2,24.3 116.2,20.1 			"/>
			<path class="st7" d="M118,0.1h-1.8v4.2h1.8V0.1 M112,0.1h-1.8v4.2h1.8V0.1"/>
			<polyline class="st10" points="116.2,0.1 112,0.1 112,4.3 116.2,4.3 116.2,0.1 			"/>
		</g>
	</g>
</g>
<text transform="matrix(1 0 0 1 273.5119 414.2373)" style="fill:#606060; font-family:'YuGothic-Bold'; font-size:36px;">a</text>
<text transform="matrix(1 0 0 1 298.0651 414.2373)" style="fill:#606060; font-family:'YuGothic-Bold'; font-size:36px;">a</text>
</svg>
