<?xml version="1.0" encoding="utf-8"?>
<!-- Generator: Adobe Illustrator 26.5.0, SVG Export Plug-In . SVG Version: 6.00 Build 0)  -->
<svg version="1.1" id="レイヤー_1" xmlns="http://www.w3.org/2000/svg" xmlns:xlink="http://www.w3.org/1999/xlink" x="0px"
	 y="0px" viewBox="0 0 175.8 36.5" style="enable-background:new 0 0 175.8 36.5;" xml:space="preserve">
<style type="text/css">
	.st0{fill:#3178DD;}
</style>
<text transform="matrix(1 0 0 1 345.1683 382.279)" style="fill:#606060; font-family:'YuGothic-Bold'; font-size:36px;">a</text>
<text transform="matrix(1 0 0 1 369.7215 382.279)" style="fill:#606060; font-family:'YuGothic-Bold'; font-size:36px;">a</text>
<g>
	<path class="st0" d="M14.4,15.9c1.8-0.2,6.1-1,6.1-5c0-4.9-6.7-5-7-5H7.2l7,10L14.4,15.9z M13.5,7.2c0.1,0,6.1,0.1,6.1,3.7
		c0,2.9-3.6,3.6-5,3.7L9.3,7.2H13.5z"/>
	<path class="st0" d="M138.1,26.3l-0.4,0.4c-1.9,1.9-4.6,3-7.3,3c-5.6,0-9.7-3.9-10.2-9.7c-0.4,0-0.8,0-1.2,0
		c0.5,6.5,5,10.9,11.3,10.9c2.8,0,5.6-1.1,7.7-3l3,3.1c-2.9,2.7-6.7,4.3-10.7,4.3c-8.8,0-15.2-6.3-15.7-15.3c-0.4,0-0.8,0-1.2,0
		c0.5,9.6,7.5,16.4,16.9,16.4c4.5,0,8.7-1.8,11.9-5l0.4-0.4L138.1,26.3z"/>
	<path class="st0" d="M130.4,1.2c4,0,7.8,1.5,10.7,4.3l-3,3.1c-2.1-1.9-4.8-3-7.7-3c-6.4,0-10.8,4.3-11.3,10.7c0.4,0,0.8,0,1.2,0
		c0.5-5.8,4.4-9.5,10.2-9.5c2.7,0,5.4,1.1,7.3,3l0.4,0.4l4.6-4.7l-0.4-0.4c-3.2-3.3-7.4-5.1-11.9-5.1c-9.4,0-16.3,6.8-16.9,16.3
		c0.4,0,0.8,0,1.2,0C115.2,7.3,121.5,1.2,130.4,1.2z"/>
	<path class="st0" d="M161.1,12.4l-5,14.4h4.1c0-0.4,0-0.8,0-1.2h-2.4l3.3-9.5l3.3,9.5h-2.4c0,0.4,0,0.8,0,1.2h4.1L161.1,12.4z"/>
	<path class="st0" d="M161.1,0l-14.6,36.5h7.5l1.5-3.9h4.7c0-0.4,0-0.8,0-1.2h-5.6l-1.7,4.1h-4.9l13-32.2l13,32.3h-4.9l-1.7-4.1
		h-5.5c0,0.4,0,0.8,0,1.2h4.7l1.5,3.9h7.5L161.1,0z"/>
	<path class="st0" d="M9.9,21.3"/>
	<path class="st0" d="M18.9,21c5.3-1.6,8.2-5.1,8.2-10C27,0.2,14,0.1,13.5,0.1H0v6.7L5,14l0,0l5.5,7.8l0,0l10.2,14.7h8.9L18.9,21z
		 M11,20.6L11,20.6L7.8,16l0-0.1l-0.5-0.7L6,13.5l0,0l-5-7.1v-5h12.5c0.1,0,12.6,0.1,12.6,9.6c0,5.8-4.5,8.1-8.2,9L17,20.2
		l10.7,15.2h-6.4L11,20.6z"/>
	<path class="st0" d="M6.9,22.1l-3.5-5.2l-1,0l0,0H0.1v19.5h6.7V23.3l0,0L6.9,22.1z M1,35.6V18h2.2L6,22.4v13.2H1z"/>
	<path class="st0" d="M69.2,18.3l-1.1-2.1c0,0,0,0,0,0L59.7,0.1H53v36.4h7v-18l8.2-0.1c0,0,0,0,0,0L69.2,18.3z M58.7,17.3v18.1h-4.5
		V1.3H59l8.1,15.9L58.7,17.3z"/>
	<path class="st0" d="M68,18.2l1.1,2.1c0,0,0,0,0,0l8.5,16.2h6.7V0.1h-7v18l-8.2,0.1c0,0,0,0,0,0L68,18.2z M78.5,19.2V1.3H83v33.9
		h-4.9l-8.1-15.9L78.5,19.2z"/>
	<path class="st0" d="M98.8,18c-5,0-9.1,4.1-9.1,9.2s4.1,9.2,9.1,9.2s9.1-4.1,9.1-9.2S103.9,18,98.8,18z M98.8,35.2
		c-4.3,0-7.8-3.6-7.8-8s3.5-8,7.8-8c4.3,0,7.8,3.6,7.8,8S103.2,35.2,98.8,35.2z"/>
	<path class="st0" d="M98.8,22.6c-2.6,0-4.7,2.2-4.7,4.8c0,2.7,2.1,4.8,4.7,4.8s4.7-2.2,4.7-4.8C103.6,24.8,101.5,22.6,98.8,22.6z
		 M98.8,31.2c-2,0-3.7-1.7-3.7-3.7s1.6-3.7,3.7-3.7c2,0,3.7,1.7,3.7,3.7S100.9,31.2,98.8,31.2z"/>
	<rect x="113.5" y="16.3" class="st0" width="6.7" height="0.8"/>
	<rect x="113.5" y="20" class="st0" width="6.7" height="0.8"/>
	<path class="st0" d="M35.4,19.3L35.4,19.3c-0.1,0-0.1,0-0.2,0v17.2H43V20.2v-0.9v0H35.4z M42.1,35.4h-5.8V20.2h5.8V35.4z"/>
	<path class="st0" d="M35.4,0L35.4,0c-0.1,0-0.1,0-0.2,0v17.2H43V0.9V0.1v0H35.4z M42.1,15.9h-5.8V0.9h5.8V15.9z"/>
	<rect x="159.2" y="25.5" class="st0" width="1" height="6.2"/>
	<rect x="162.1" y="25.5" class="st0" width="1" height="6.2"/>
</g>
</svg>
