<?xml version="1.0" encoding="utf-8"?>
<!-- Generator: Adobe Illustrator 26.0.2, SVG Export Plug-In . SVG Version: 6.00 Build 0)  -->
<svg version="1.2" baseProfile="tiny" id="レイヤー_1"
	 xmlns="http://www.w3.org/2000/svg" xmlns:xlink="http://www.w3.org/1999/xlink" x="0px" y="0px" viewBox="0 0 133.2 25.2"
	 overflow="visible" xml:space="preserve">
<g>
	<path fill="#040000" d="M1506.9-476.3c1.9,0,1.9-3,0-3C1504.9-479.3,1504.9-476.3,1506.9-476.3L1506.9-476.3z"/>
</g>
<g>
	<g>
		<path fill="#FAFBFC" d="M15.4,11.5c-1.4,2.1-3.7,3.3-6.2,3.3h2.4c1.7,0,3,1.4,3,3c0,1.7-1.4,3-3,3H6.2v4.4H1.9h9.8
			c3.3,0,6.2-2.2,7.1-5.4C19.7,16.6,18.3,13.2,15.4,11.5"/>
		<path fill="#FAFBFC" d="M0,0L0,0v4.4h1.9v6.1h4.4V4.4H0L0,0 M6.2,14.8H1.9v6.1h4.4V14.8"/>
		<polyline fill="#FAFBFC" points="6.2,20.8 1.9,20.8 1.9,25.2 6.2,25.2 6.2,20.8 		"/>
		<path fill="#FAFBFC" d="M9.3,0H2.2c2.2,0,4.1,1.8,4.1,4.1v0.3h3c1.1,0,2.1,0.6,2.6,1.5s0.5,2.1,0,3c-0.5,0.9-1.6,1.5-2.6,1.5h2.4
			c1.3,0,2.6,0.4,3.8,1c1.5-2.3,1.6-5.2,0.3-7.6C14.5,1.5,12,0,9.3,0"/>
		<path fill="#FAFBFC" d="M11.7,10.4H6.2v4.4h3c2.5,0,4.8-1.3,6.2-3.3C14.3,10.8,13,10.4,11.7,10.4"/>
		<path fill="#FAFBFC" d="M2.2,0H0v4.4h6.2V4.1C6.2,1.9,4.4,0,2.2,0"/>
		<polyline fill="#FAFBFC" points="6.2,10.4 1.9,10.4 1.9,14.8 6.2,14.8 6.2,10.4 		"/>
	</g>
	<g>
		<path fill="#FAFBFC" d="M31.8,0.1h-4.4v0L31.8,0.1L31.8,0.1 M31.8,4.5h-4.4v16.4h4.4V4.5"/>
		<path fill="#FAFBFC" d="M33.7,20.9h-1.9v4.4h1.9V20.9 M27.4,20.9h-1.9v4.4h1.9V20.9"/>
		<polyline fill="#FAFBFC" points="31.8,20.9 27.4,20.9 27.4,25.2 31.8,25.2 31.8,20.9 		"/>
		<path fill="#FAFBFC" d="M33.7,0.1h-1.9v4.4h1.9V0.1 M27.4,0.1h-1.9v4.4h1.9V0.1"/>
		<polyline fill="#FAFBFC" points="31.8,0.1 27.4,0.1 27.4,4.5 31.8,4.5 31.8,0.1 		"/>
	</g>
	<g>
		<polyline fill="#FAFBFC" points="62.8,4.4 58.5,4.4 58.5,25.2 62.8,25.2 62.8,4.4 		"/>
		<polyline fill="#FAFBFC" points="67.9,0 53.4,0 53.4,4.4 58.5,4.4 58.5,0 62.8,0 62.8,4.4 67.9,4.4 67.9,0 		"/>
		<polyline fill="#FAFBFC" points="62.8,0 58.5,0 58.5,4.4 62.8,4.4 62.8,0 		"/>
	</g>
	<g>
		<path fill="#FAFBFC" d="M81.7,0c-4.6,0-8.4,3.8-8.4,8.4v8.4c0,4.6,3.7,8.4,8.4,8.4s8.4-3.7,8.4-8.4V8.4C90,3.8,86.3,0,81.7,0
			 M81.7,20.8c-2.2,0-4-1.8-4-4V8.4c0-2.2,1.8-4,4-4c2.2,0,4,1.8,4,4v8.4C85.7,19,83.9,20.8,81.7,20.8"/>
	</g>
	<g>
		<path fill="#FAFBFC" d="M104.2,0c-4.6,0-8.4,3.8-8.4,8.4v8.4c0,4.6,3.7,8.4,8.4,8.4s8.4-3.7,8.4-8.4V8.4
			C112.5,3.8,108.8,0,104.2,0 M104.2,20.8c-2.2,0-4-1.8-4-4V8.4c0-2.2,1.8-4,4-4c2.2,0,4,1.8,4,4v8.4
			C108.2,19,106.4,20.8,104.2,20.8"/>
	</g>
	<g>
		<polyline fill="#FAFBFC" points="133.2,20.9 123,20.9 123,25.2 118.7,25.2 118.7,20.9 118.7,25.2 133.2,25.2 133.2,20.9 		"/>
		<polyline fill="#FAFBFC" points="123,0.1 118.7,0.1 118.7,20.9 123,20.9 123,0.1 		"/>
		<polyline fill="#FAFBFC" points="123,20.9 118.7,20.9 118.7,25.2 123,25.2 123,20.9 		"/>
	</g>
</g>
<image width="200" height="64" xlink:href="E7D25D48.jpg"  transform="matrix(1 0 0 1 651.5528 128.0707)">
</image>
<rect x="749.2" y="-20.4" fill="#5F5F5F" width="233" height="233"/>
</svg>
