<?xml version="1.0" encoding="utf-8"?>
<!-- Generator: Adobe Illustrator 24.3.0, SVG Export Plug-In . SVG Version: 6.00 Build 0)  -->
<svg version="1.1" id="レイヤー_1" xmlns="http://www.w3.org/2000/svg" xmlns:xlink="http://www.w3.org/1999/xlink" x="0px"
	 y="0px" viewBox="0 0 16.7 14.5" style="enable-background:new 0 0 16.7 14.5;" xml:space="preserve">
<style type="text/css">
	.st0{fill:#FFFFFF;}
</style>
<g>
	<g>
		<path class="st0" d="M16.7,7.2c0-0.2-0.1-0.4-0.3-0.5L0.7,0C0.5,0,0.3,0,0.2,0.1C0,0.3,0,0.5,0,0.7l2.3,6.6L0,13.8
			C0,14,0,14.2,0.1,14.3c0,0,0,0,0,0c0.1,0.1,0.4,0.2,0.5,0.1l15.8-6.8C16.6,7.6,16.7,7.4,16.7,7.2z M1.3,1.4l12.5,5.4l-10.6,0
			L1.3,1.4z M1.3,13.1l1.9-5.4l10.6,0L1.3,13.1z"/>
	</g>
</g>
</svg>
