<?xml version="1.0" encoding="utf-8"?>
<!-- Generator: Adobe Illustrator 26.1.0, SVG Export Plug-In . SVG Version: 6.00 Build 0)  -->
<svg version="1.1" id="レイヤー_1" xmlns="http://www.w3.org/2000/svg" xmlns:xlink="http://www.w3.org/1999/xlink" x="0px"
	 y="0px" viewBox="0 0 640.1 480.1" style="enable-background:new 0 0 640.1 480.1;" xml:space="preserve">
<style type="text/css">
	.st0{fill:#686868;}
	.st1{fill:#FFFFFF;}
</style>
<polygon class="st0" points="640.1,480.1 0,480.1 0,480.1 0,0 640.1,0 640.1,480.1 "/>
<g>
	<path class="st1" d="M402.4,154.5H237.9c-7.3,0-13.3,5.9-13.3,13.3v116.4c0,7.3,5.9,13.3,13.3,13.3h164.5c7.3,0,13.3-5.9,13.3-13.3
		V167.8C415.7,160.5,409.8,154.5,402.4,154.5z M400.5,240.3l-31-23.2c-4.2-3.2-10.1-3-14.2,0.3l-38.1,31.2c-4.6,3.8-11.3,4-16.1,0.4
		l-19.8-14.6c-4-3-9.5-2.9-13.4,0.2l-28,22c-1.4,1.1-3.5,0.1-3.5-1.7v-84.7c0-2.1,1.7-3.9,3.9-3.9h159.8c2.1,0,3.9,1.7,3.9,3.9v68.4
		C404,240.4,401.9,241.4,400.5,240.3z"/>
	<circle class="st1" cx="274.5" cy="200.8" r="18.5"/>
</g>
</svg>
