<?xml version="1.0" encoding="utf-8"?>
<!-- Generator: Adobe Illustrator 26.0.2, SVG Export Plug-In . SVG Version: 6.00 Build 0)  -->
<svg version="1.2" baseProfile="tiny" id="レイヤー_1"
	 xmlns="http://www.w3.org/2000/svg" xmlns:xlink="http://www.w3.org/1999/xlink" x="0px" y="0px" viewBox="0 0 356 390"
	 overflow="visible" xml:space="preserve">
<g>
	<path fill="#EFEA3A" d="M166,5v380H5V5H166 M171,0H0v390h171V0L171,0z"/>
</g>
<g>
	<path fill="#AF2927" d="M351,117v268H190V117H351 M356,112H185v278h171V112L356,112z"/>
</g>
<g>
	<path fill="#EFEA3A" d="M48.8,36.2h-2.9V21.9h2.9V36.2z"/>
	<path fill="#EFEA3A" d="M51.5,36.2V21.9h4.4c1.2,0,2.4,0.3,3.4,0.8s1.8,1.4,2.3,2.4s0.8,2.2,0.8,3.5v0.7c0,1.3-0.3,2.5-0.8,3.5
		s-1.3,1.8-2.3,2.4s-2.1,0.9-3.3,0.9H51.5z M54.5,24.3v9.5h1.4c1.1,0,2-0.4,2.6-1.1s0.9-1.8,0.9-3.2v-0.8c0-1.4-0.3-2.5-0.9-3.3
		s-1.5-1.1-2.6-1.1H54.5z"/>
	<path fill="#EFEA3A" d="M78.8,30.3c0,2-0.4,3.5-1.2,4.5s-2,1.6-3.6,1.6c-1.5,0-2.7-0.5-3.6-1.5s-1.2-2.5-1.3-4.4v-2.6
		c0-2,0.4-3.5,1.2-4.5s2-1.5,3.6-1.5s2.7,0.5,3.6,1.5s1.2,2.5,1.3,4.4V30.3z M75.9,27.4c0-1.2-0.2-2-0.5-2.6S74.6,24,74,24
		c-0.7,0-1.2,0.3-1.5,0.8c-0.3,0.5-0.5,1.3-0.5,2.4v3.5c0,1.2,0.2,2,0.5,2.6s0.8,0.8,1.5,0.8c0.7,0,1.2-0.3,1.5-0.8s0.5-1.4,0.5-2.5
		V27.4z"/>
	<path fill="#EFEA3A" d="M90.2,30.3c0,2-0.4,3.5-1.2,4.5s-2,1.6-3.6,1.6c-1.5,0-2.7-0.5-3.6-1.5s-1.2-2.5-1.3-4.4v-2.6
		c0-2,0.4-3.5,1.2-4.5s2-1.5,3.6-1.5s2.7,0.5,3.6,1.5s1.2,2.5,1.3,4.4V30.3z M87.4,27.4c0-1.2-0.2-2-0.5-2.6S86.1,24,85.4,24
		c-0.7,0-1.2,0.3-1.5,0.8c-0.3,0.5-0.5,1.3-0.5,2.4v3.5c0,1.2,0.2,2,0.5,2.6s0.8,0.8,1.5,0.8c0.7,0,1.2-0.3,1.5-0.8s0.5-1.4,0.5-2.5
		V27.4z"/>
	<path fill="#EFEA3A" d="M101.7,30.3c0,2-0.4,3.5-1.2,4.5s-2,1.6-3.6,1.6c-1.5,0-2.7-0.5-3.6-1.5s-1.2-2.5-1.3-4.4v-2.6
		c0-2,0.4-3.5,1.2-4.5s2-1.5,3.6-1.5s2.7,0.5,3.6,1.5s1.2,2.5,1.3,4.4V30.3z M98.9,27.4c0-1.2-0.2-2-0.5-2.6S97.6,24,96.9,24
		c-0.7,0-1.2,0.3-1.5,0.8c-0.3,0.5-0.5,1.3-0.5,2.4v3.5c0,1.2,0.2,2,0.5,2.6s0.8,0.8,1.5,0.8c0.7,0,1.2-0.3,1.5-0.8s0.5-1.4,0.5-2.5
		V27.4z"/>
	<path fill="#EFEA3A" d="M113.2,30.3c0,2-0.4,3.5-1.2,4.5s-2,1.6-3.6,1.6c-1.5,0-2.7-0.5-3.6-1.5s-1.2-2.5-1.3-4.4v-2.6
		c0-2,0.4-3.5,1.2-4.5s2-1.5,3.6-1.5s2.7,0.5,3.6,1.5s1.2,2.5,1.3,4.4V30.3z M110.4,27.4c0-1.2-0.2-2-0.5-2.6s-0.8-0.8-1.5-0.8
		c-0.7,0-1.2,0.3-1.5,0.8c-0.3,0.5-0.5,1.3-0.5,2.4v3.5c0,1.2,0.2,2,0.5,2.6s0.8,0.8,1.5,0.8c0.7,0,1.2-0.3,1.5-0.8s0.5-1.4,0.5-2.5
		V27.4z"/>
</g>
<g>
	<path fill="#B41E23" d="M235.8,147.2h-2.9v-14.2h2.9V147.2z"/>
	<path fill="#B41E23" d="M238.5,147.2v-14.2h4.4c1.2,0,2.4,0.3,3.4,0.8s1.8,1.4,2.3,2.4s0.8,2.2,0.8,3.5v0.7c0,1.3-0.3,2.5-0.8,3.5
		s-1.3,1.8-2.3,2.4s-2.1,0.9-3.3,0.9H238.5z M241.5,135.3v9.5h1.4c1.1,0,2-0.4,2.6-1.1s0.9-1.8,0.9-3.2v-0.8c0-1.4-0.3-2.5-0.9-3.3
		s-1.5-1.1-2.6-1.1H241.5z"/>
	<path fill="#B41E23" d="M265.8,141.3c0,2-0.4,3.5-1.2,4.5s-2,1.6-3.6,1.6c-1.5,0-2.7-0.5-3.6-1.5s-1.2-2.5-1.3-4.4v-2.6
		c0-2,0.4-3.5,1.2-4.5s2-1.5,3.6-1.5s2.7,0.5,3.6,1.5s1.2,2.5,1.3,4.4V141.3z M262.9,138.4c0-1.2-0.2-2-0.5-2.6s-0.8-0.8-1.5-0.8
		c-0.7,0-1.2,0.3-1.5,0.8c-0.3,0.5-0.5,1.3-0.5,2.4v3.5c0,1.2,0.2,2,0.5,2.6s0.8,0.8,1.5,0.8c0.7,0,1.2-0.3,1.5-0.8s0.5-1.4,0.5-2.5
		V138.4z"/>
	<path fill="#B41E23" d="M277.2,141.3c0,2-0.4,3.5-1.2,4.5s-2,1.6-3.6,1.6c-1.5,0-2.7-0.5-3.6-1.5s-1.2-2.5-1.3-4.4v-2.6
		c0-2,0.4-3.5,1.2-4.5s2-1.5,3.6-1.5s2.7,0.5,3.6,1.5s1.2,2.5,1.3,4.4V141.3z M274.4,138.4c0-1.2-0.2-2-0.5-2.6s-0.8-0.8-1.5-0.8
		c-0.7,0-1.2,0.3-1.5,0.8c-0.3,0.5-0.5,1.3-0.5,2.4v3.5c0,1.2,0.2,2,0.5,2.6s0.8,0.8,1.5,0.8c0.7,0,1.2-0.3,1.5-0.8s0.5-1.4,0.5-2.5
		V138.4z"/>
	<path fill="#B41E23" d="M288.7,141.3c0,2-0.4,3.5-1.2,4.5s-2,1.6-3.6,1.6c-1.5,0-2.7-0.5-3.6-1.5s-1.2-2.5-1.3-4.4v-2.6
		c0-2,0.4-3.5,1.2-4.5s2-1.5,3.6-1.5s2.7,0.5,3.6,1.5s1.2,2.5,1.3,4.4V141.3z M285.9,138.4c0-1.2-0.2-2-0.5-2.6s-0.8-0.8-1.5-0.8
		c-0.7,0-1.2,0.3-1.5,0.8c-0.3,0.5-0.5,1.3-0.5,2.4v3.5c0,1.2,0.2,2,0.5,2.6s0.8,0.8,1.5,0.8c0.7,0,1.2-0.3,1.5-0.8s0.5-1.4,0.5-2.5
		V138.4z"/>
	<path fill="#B41E23" d="M300.2,141.3c0,2-0.4,3.5-1.2,4.5s-2,1.6-3.6,1.6c-1.5,0-2.7-0.5-3.6-1.5s-1.2-2.5-1.3-4.4v-2.6
		c0-2,0.4-3.5,1.2-4.5s2-1.5,3.6-1.5s2.7,0.5,3.6,1.5s1.2,2.5,1.3,4.4V141.3z M297.4,138.4c0-1.2-0.2-2-0.5-2.6s-0.8-0.8-1.5-0.8
		c-0.7,0-1.2,0.3-1.5,0.8c-0.3,0.5-0.5,1.3-0.5,2.4v3.5c0,1.2,0.2,2,0.5,2.6s0.8,0.8,1.5,0.8c0.7,0,1.2-0.3,1.5-0.8s0.5-1.4,0.5-2.5
		V138.4z"/>
</g>
</svg>
